<?xml version="1.0" encoding="utf-8"?>
<!-- Svg Vector Icons : http://www.onlinewebfonts.com/icon -->
<!DOCTYPE svg PUBLIC "-//W3C//DTD SVG 1.1//EN" "http://www.w3.org/Graphics/SVG/1.1/DTD/svg11.dtd">
<svg version="1.1" xmlns="http://www.w3.org/2000/svg" xmlns:xlink="http://www.w3.org/1999/xlink" x="0px" y="0px" viewBox="0 0 256 256" enable-background="new 0 0 256 256" xml:space="preserve">
<metadata> Svg Vector Icons : http://www.onlinewebfonts.com/icon </metadata>
<g><g><path fill="#000000" d="M60.6,131.5c-1.9-1.9-1.9-5,0-7c1.9-1.9,5-1.9,7,0l24.6,24.6c1.9,1.9,1.9,5,0,7l-24.6,24.6c-1,1-2.2,1.4-3.5,1.4s-2.5-0.5-3.5-1.4c-1.9-1.9-1.9-5,0-7l21.1-21.1L60.6,131.5z M118.2,152.6h39.3c2.7,0,4.9,2.2,4.9,4.9s-2.2,4.9-4.9,4.9h-39.3c-2.7,0-4.9-2.2-4.9-4.9S115.5,152.6,118.2,152.6L118.2,152.6z M10,196.8c0,13.6,11,24.6,24.6,24.6h186.8c13.5,0,24.6-11,24.6-24.6V93.6H10V196.8z"/><path fill="#000000" d="M108.3,73.9c-5.4,0-9.8-4.4-9.8-9.8s4.4-9.8,9.8-9.8c5.4,0,9.8,4.4,9.8,9.8S113.7,73.9,108.3,73.9 M78.8,73.9c-5.4,0-9.8-4.4-9.8-9.8s4.4-9.8,9.8-9.8s9.8,4.4,9.8,9.8S84.2,73.9,78.8,73.9 M49.3,73.9c-5.4,0-9.8-4.4-9.8-9.8s4.4-9.8,9.8-9.8c5.4,0,9.8,4.4,9.8,9.8S54.7,73.9,49.3,73.9 M221.4,34.6H34.6C21,34.6,10,45.6,10,59.2v24.6h236V59.2C246,45.6,235,34.6,221.4,34.6"/></g></g>
</svg>