<?xml version="1.0" encoding="utf-8"?>
<!-- Svg Vector Icons : http://www.onlinewebfonts.com/icon -->
<!DOCTYPE svg PUBLIC "-//W3C//DTD SVG 1.1//EN" "http://www.w3.org/Graphics/SVG/1.1/DTD/svg11.dtd">
<svg version="1.1" xmlns="http://www.w3.org/2000/svg" xmlns:xlink="http://www.w3.org/1999/xlink" x="0px" y="0px" viewBox="0 0 256 256" enable-background="new 0 0 256 256" xml:space="preserve">
<metadata> Svg Vector Icons : http://www.onlinewebfonts.com/icon </metadata>
<g><g><g><path fill="#E6E6FA" d="M147.1,36.8c-2.9,1.9-6,7.5-6,10.8c0,5.3,2.5,8.4,31.4,37.2l28.8,28.9l-91.4,0.2c-91.4,0.2-91.5,0.2-93.8,2c-8,6-8,16,0,22c2.3,1.7,2.6,1.7,93.6,2.1l91.3,0.4l-29.6,29.5c-31.8,31.7-33.3,33.6-32.3,39.9c0.8,4.4,5.2,9.3,9.7,10.6c7.2,1.9,6.1,2.8,52.6-43.3c23.4-23.3,43-43.4,43.6-44.7c0.6-1.2,1.1-4.2,1.1-6.5v-4.2l-40.7-40.9c-22.4-22.5-42.4-41.9-44.4-43.3C156.4,34.5,151,34.2,147.1,36.8z"/></g></g></g>
</svg>