<svg xmlns="http://www.w3.org/2000/svg" viewBox="0 0 60 49.96"><title>cloud upload</title><g id="Layer_2" data-name="Layer 2"><g id="Layer_1-2" data-name="Layer 1"><g id="cloud_upload" data-name="cloud upload" fill="#E6E6FA"><path d="M40.12,26.84l-8-8a3,3,0,0,0-4.24,0l-8,8a3,3,0,1,0,4.24,4.24L27,28.2V47a3,3,0,1,0,6,0V28.2l2.88,2.88a3,3,0,0,0,4.24,0A3,3,0,0,0,40.12,26.84Z"/><path d="M46,41.92H40a3,3,0,0,1,0-6h6a8,8,0,0,0,0-16H44.23a3,3,0,0,1-3-2.78,12,12,0,0,0-23.94,0,3,3,0,0,1-3,2.78H14a8,8,0,0,0,0,16h6a3,3,0,0,1,0,6H14a14,14,0,0,1-2.31-27.81A18,18,0,0,1,46.81,14a14,14,0,0,1-.81,28Z"/></g></g></g></svg>