<?xml version="1.0" encoding="utf-8"?>
<!-- Svg Vector Icons : http://www.onlinewebfonts.com/icon -->
<!DOCTYPE svg PUBLIC "-//W3C//DTD SVG 1.1//EN" "http://www.w3.org/Graphics/SVG/1.1/DTD/svg11.dtd">
<svg version="1.1" xmlns="http://www.w3.org/2000/svg" xmlns:xlink="http://www.w3.org/1999/xlink" x="0px" y="0px" viewBox="0 0 256 256" enable-background="new 0 0 256 256" xml:space="preserve">
<metadata> Svg Vector Icons : http://www.onlinewebfonts.com/icon </metadata>
<g><g><path fill="#c8bcfe" d="M237.3,129.7c-5.8-8.7-13.5-15.3-23-19.6c0.2-2.2,0.2-3.9,0.2-5.2c0-16.9-6.1-31.4-18.4-43.4c-12.3-11.9-27.1-17.9-44.5-17.9c-13,0-24.7,3.5-35.2,10.5c-10.5,7-18.2,16.2-23,27.6c-5.7-5-12.5-7.4-20.4-7.4c-8.7,0-16.1,3-22.3,9c-6.1,6-9.2,13.2-9.2,21.7c0,6,1.7,11.5,5,16.5c-10.6,2.4-19.3,7.8-26.2,16.1C13.4,146,10,155.6,10,166.3c0,12.7,4.6,23.5,13.8,32.5c9.2,9,20.3,13.5,33.4,13.5h133.7c15.2,0,28.1-5.3,38.9-15.8s16.2-23.1,16.2-37.9C246,148.1,243.1,138.5,237.3,129.7z M175.7,126.3l-47.4,47.3c-6,6-15.3,6.5-21.9,1.7c-1.3-0.7-26.1-25.2-26.1-25.2c-6.6-6.6-6.6-17.3,0-23.8c6.6-6.6,17.3-6.6,23.8,0l11.9,11.9l35.8-35.8c6.6-6.6,17.3-6.6,23.8,0C182.3,109,182.3,119.7,175.7,126.3z"/></g></g>
</svg>