<svg xmlns="http://www.w3.org/2000/svg" viewBox="0 0 45 59.5"><title>lock</title><g fill="#c8bcfe" id="Layer_2" data-name="Layer 2"><g id="Layer_1-2" data-name="Layer 1"><path id="lock" d="M38.5,19.5h-1V11a11,11,0,0,0-11-11h-8a11,11,0,0,0-11,11v8.5h-1A6.51,6.51,0,0,0,0,26V49A10.51,10.51,0,0,0,10.5,59.5h24A10.51,10.51,0,0,0,45,49V26A6.51,6.51,0,0,0,38.5,19.5ZM25,39.45V45a2.5,2.5,0,0,1-5,0V39.45a2.5,2.5,0,0,1,.5-5h4a2.5,2.5,0,0,1,.5,5ZM31.5,19h-18V11a5,5,0,0,1,5-5h8a5,5,0,0,1,5,5Z"/></g></g></svg>