<?xml version="1.0" encoding="utf-8"?>
<!-- Svg Vector Icons : http://www.onlinewebfonts.com/icon -->
<!DOCTYPE svg PUBLIC "-//W3C//DTD SVG 1.1//EN" "http://www.w3.org/Graphics/SVG/1.1/DTD/svg11.dtd">
<svg version="1.1" xmlns="http://www.w3.org/2000/svg" xmlns:xlink="http://www.w3.org/1999/xlink" x="0px" y="0px" viewBox="0 0 256 256" enable-background="new 0 0 256 256" xml:space="preserve">
<metadata> Svg Vector Icons : http://www.onlinewebfonts.com/icon </metadata>
<g><g><g><path fill="#E6E6FA" d="M58.8,31.7C33.9,40,13,47.1,12.5,47.4c-1.6,0.8-2.6,3.2-2.3,5.2c0.1,1.3,2.7,5.2,9.9,15.5c5.3,7.6,10,14.4,10.5,15.1l0.8,1.2l-9.7,13.9C10.1,114.7,10,114.9,10,116.6c0,1.4,1,3.6,2,4.4c0.4,0.3,5.1,2.1,10.5,3.9l9.9,3.3l0.2,38.8c0.2,41.8,0.1,40.3,2.7,41.6c1.7,0.9,91.7,30.8,92.6,30.8c0.9,0,91.5-30.2,92.9-31c2.3-1.2,2.2-0.2,2.5-41.5l0.2-38.9l9.3-3.1c5.1-1.7,9.7-3.3,10.3-3.6c1.4-0.6,2.9-3.2,2.9-4.9c0-1.8,0-1.9-11.6-18.3l-9.7-13.9l0.8-1.3c0.5-0.7,5.2-7.5,10.5-15.1c7.2-10.3,9.8-14.3,9.9-15.5c0.3-2-0.7-4.3-2.3-5.1c-1.9-1-92.1-31-93.3-31c-0.6,0-1.7,0.3-2.4,0.7c-0.7,0.4-5.3,6.6-10.5,13.9c-5.1,7.2-9.3,13.1-9.5,13.1s-4.4-5.9-9.5-13.1c-5.1-7.3-9.8-13.5-10.5-13.9c-0.7-0.4-1.9-0.7-2.6-0.7C104.8,16.5,83.8,23.4,58.8,31.7z M111,40c4.3,6.1,7.7,11.2,7.7,11.3c0,0.3-78.2,26.4-78.4,26.2C38.9,75.9,24.8,55.2,25,55c0.4-0.4,76.6-25.9,77.6-26C103,29,106.3,33.3,111,40z M192.1,41.7c21.1,7,38.6,13,38.8,13.1c0.3,0.2-13.7,21-15.2,22.6c-0.1,0-17.8-5.7-39.3-12.9c-25.2-8.4-39.1-13.2-39-13.6c0.6-1.4,15.3-22,15.8-22C153.5,29,170.9,34.7,192.1,41.7z M164.1,72.4l35.9,12l-36,12l-36,12l-36-12l-36-12l35.6-11.9c19.6-6.6,35.9-11.9,36.1-11.9C128,60.4,144.4,65.8,164.1,72.4z M118.7,117.4c0,0.6-15.6,22.4-16,22.4c-0.2,0-17.9-5.9-39.2-13C37,118,24.9,113.7,25,113.3c0.2-0.6,12-17.4,14.4-20.8l1.1-1.4l39.1,13C101.2,111.3,118.7,117.3,118.7,117.4z M223.3,102.1c4.1,5.9,7.5,10.9,7.7,11.2c0.1,0.4-13,5-38.5,13.5c-21.3,7.1-39,12.9-39.2,13c-0.4,0-16-21.7-16-22.3c0-0.4,77.9-26.4,78.3-26.1C215.7,91.4,219.2,96.3,223.3,102.1z M74.2,142.1c16.5,5.5,30.6,9.9,31.3,9.9c2.5,0,3.8-1.3,10-10.2c3.4-4.9,6.3-8.9,6.6-9.1c0.2-0.1,0.4,20.8,0.4,46.5c0,25.7-0.1,46.8-0.3,46.7c-0.2,0-17.9-5.9-39.2-13L44,200L43.9,166c0-18.6,0-33.9,0.1-33.9S57.7,136.7,74.2,142.1z M212.1,166L212,200l-38.9,13c-21.4,7.2-39,13-39.2,13c-0.2,0-0.4-21-0.4-46.7c0-25.7,0.2-46.6,0.4-46.5c0.2,0.1,3.1,4.2,6.6,9.1c6.2,8.9,7.5,10.2,10,10.2c0.7,0,14.7-4.5,31.1-9.9c16.4-5.5,30-9.9,30.2-9.9C212.1,132.2,212.2,147.4,212.1,166z"/></g></g></g>
</svg>