<svg xmlns="http://www.w3.org/2000/svg" viewBox="0 0 58.16 60"><title>attach file-2</title><g id="Layer_2" data-name="Layer 2"><g id="Layer_1-2" data-name="Layer 1"><g id="attach_file-2" data-name="attach file-2" fill="#E6E6FA"><path d="M27,60a11.06,11.06,0,0,1-5.54-1.49L5.57,49.36A11.11,11.11,0,0,1,1.5,34.16l16.76-29a3,3,0,0,1,5.2,3l-16.77,29a5.16,5.16,0,0,0-.51,3.9,5.08,5.08,0,0,0,2.39,3.11l15.84,9.14a5.09,5.09,0,0,0,3.89.52,5.17,5.17,0,0,0,3.12-2.39l20.32-35.2a3.11,3.11,0,0,0,.31-2.35A3.08,3.08,0,0,0,50.6,12L40.92,6.42a3,3,0,0,0-2.35-.31,3.12,3.12,0,0,0-1.88,1.44L20.94,34.83a1.08,1.08,0,0,0,.39,1.46l3.52,2a1.07,1.07,0,0,0,1.46-.39L38.5,16.81a3,3,0,0,1,5.2,3L31.5,40.93a7.08,7.08,0,0,1-9.65,2.59l-3.52-2a7.07,7.07,0,0,1-2.58-9.65L31.5,4.55A9.09,9.09,0,0,1,43.92,1.22L53.6,6.81a9.1,9.1,0,0,1,3.33,12.43L36.61,54.44A11.15,11.15,0,0,1,27,60Z"/></g></g></g></svg>