<?xml version="1.0" encoding="utf-8"?>
<!-- Svg Vector Icons : http://www.onlinewebfonts.com/icon -->
<!DOCTYPE svg PUBLIC "-//W3C//DTD SVG 1.1//EN" "http://www.w3.org/Graphics/SVG/1.1/DTD/svg11.dtd">
<svg version="1.1" xmlns="http://www.w3.org/2000/svg" xmlns:xlink="http://www.w3.org/1999/xlink" x="0px" y="0px" viewBox="0 0 256 256" enable-background="new 0 0 256 256" xml:space="preserve">
<metadata> Svg Vector Icons : http://www.onlinewebfonts.com/icon </metadata>
<g><g><g><path fill="#E6E6FA" d="M186.1,69.9c-5.5-14.1-13.8-25.1-24.9-33c-11.1-7.8-24.7-11.8-41-11.8c-20.9,0-38.3,6.9-52.1,20.7C54.2,59.8,46.7,77.1,45.5,98c-10.4,3.4-19,9.8-25.6,19.4c-6.6,9.5-9.9,20.1-9.9,31.8c0,14.4,4.9,27,14.8,37.6c9.8,10.6,21.5,15.9,35,15.9H81c2.1,0,3.9-0.7,5.3-2.1c1.4-1.4,2.1-3.2,2.1-5.3c0-2.1-0.7-3.9-2.1-5.3c-1.4-1.4-3.2-2.1-5.3-2.1H59.8c-9.5,0-17.8-3.9-24.9-11.5c-7.1-7.7-10.6-16.7-10.6-27.2c0-9.2,2.8-17.5,8.5-24.9c5.7-7.4,12.7-11.8,21-13.4l6.9-0.9l-0.9-6.9c0-18.1,5.5-33.2,16.6-45.2c11.1-12,25.6-18,43.8-18c27.4,0,45.2,13.1,53.5,39.2l1.4,5.1h5.1c14.1,0.3,26.3,5.4,36.4,15.2c10.1,9.8,15.2,21.7,15.2,35.5c0,13.2-4,25.4-12,36.4c-8,11.1-18,16.6-30,16.6h-16.6c-2.1,0-3.9,0.7-5.3,2.1c-1.4,1.4-2.1,3.2-2.1,5.3c0,2.1,0.7,3.9,2.1,5.3c1.4,1.4,3.2,2.1,5.3,2.1h16.6c17.2-0.6,30.9-7.8,41-21.4s15.2-29.1,15.2-46.3c0-16.9-5.8-31.5-17.5-43.8C216.8,78.8,202.7,71.8,186.1,69.9z M133.5,128.5l-1.9-1.9c-1.2-1.2-2.5-1.9-3.9-1.9s-2.5,0.6-3.5,1.9l-2.3,1.9L95.7,158c-2.8,2.8-2.8,5.4,0,7.8l1.9,1.4c2.1,2.5,4.6,2.1,7.4-0.9l15.7-17v74.2c0,1.9,0.7,3.5,2.1,5.1c1.4,1.5,3.1,2.3,5.1,2.3c2,0,3.8-0.8,5.3-2.3c1.5-1.5,2.3-3.2,2.3-5.1v-74.2l16.1,17.5c2.8,3.1,5.2,3.4,7.4,0.9l1.9-1.4c2.5-2.5,2.5-5.1,0-7.8L133.5,128.5z"/></g></g></g>
</svg>