<?xml version="1.0" encoding="utf-8"?>
<!-- Svg Vector Icons : http://www.onlinewebfonts.com/icon -->
<!DOCTYPE svg PUBLIC "-//W3C//DTD SVG 1.1//EN" "http://www.w3.org/Graphics/SVG/1.1/DTD/svg11.dtd">
<svg version="1.1" xmlns="http://www.w3.org/2000/svg" xmlns:xlink="http://www.w3.org/1999/xlink" x="0px" y="0px" viewBox="0 0 256 256" enable-background="new 0 0 256 256" xml:space="preserve">
<metadata> Svg Vector Icons : http://www.onlinewebfonts.com/icon </metadata>
<g><g><g><path fill="#c8bcfe" d="M125.8,24.6c-2,0.5-4.1,1.6-5.2,3c-2,2.2-110,189.9-110.4,191.9c-0.7,3,0.1,6,2.3,8.5c3.4,3.9-6.8,3.6,115.6,3.6c75.9,0,109.5-0.1,110.7-0.5c1-0.3,2.7-1.4,3.8-2.4c3.5-3.2,4.3-8.1,2-12.1c-33-57.4-108.2-187.4-109.1-188.5C133.6,25.4,129.1,23.8,125.8,24.6z M173.3,133l45.1,78.2l-45.2,0.1c-24.9,0-65.6,0-90.5,0l-45.2-0.1L82.6,133c24.8-43,45.2-78.3,45.4-78.2C128.1,54.7,148.5,89.9,173.3,133z"/><path fill="#c8bcfe" d="M115.7,96.9c-1.1,0.9-1.1,1.1-1.3,9.3l-0.1,8.4l3.8,22c4.5,25.9,3.8,24.1,9.9,24.1s5.3,1.7,9.8-23.9c3.8-21.8,3.8-21.9,3.8-30.2s0-8.4-1.2-9.5l-1.1-1.2h-11.2C117.7,96,116.7,96,115.7,96.9z"/><path fill="#c8bcfe" d="M125,174.8c-4.1,1-7.9,4-9.9,7.7c-1.4,2.7-1.6,8.4-0.6,11.4c1,2.7,4.5,6.4,7,7.8c2.6,1.3,7.8,1.6,10.9,0.6c3.2-1.1,6.8-4.3,8.4-7.6c4.2-8.5-2.1-19.1-11.8-20.1C127.8,174.5,126,174.6,125,174.8z"/></g></g></g>
</svg>